<?xml version="1.0" encoding="utf-8"?>
<!-- Generator: Adobe Illustrator 27.0.1, SVG Export Plug-In . SVG Version: 6.00 Build 0)  -->
<svg version="1.1" id="Layer_1" xmlns="http://www.w3.org/2000/svg" xmlns:xlink="http://www.w3.org/1999/xlink" x="0px" y="0px"
	 viewBox="0 0 992.1 283.5" style="enable-background:new 0 0 992.1 283.5;" xml:space="preserve">
<style type="text/css">
	.st0{fill:none;stroke:#ED1C24;stroke-miterlimit:10;}
	.st1{fill:none;stroke:#808285;stroke-width:0.5;stroke-miterlimit:10;}
	.st2{fill:none;stroke:#808285;stroke-width:0.5;stroke-miterlimit:10;stroke-dasharray:12.0673,12.0673;}
	.st3{fill:none;stroke:#808285;stroke-width:0.5;stroke-miterlimit:10;stroke-dasharray:12.8141,12.8141;}
	.st4{fill:#00AEEF;}
</style>
<g>
	<g>
		<path class="st0" d="M956.2,252.5h-924c-3.2,0-5.7-2.6-5.7-5.7V39.9c0-3.2,2.6-5.7,5.7-5.7h924c3.2,0,5.7,2.6,5.7,5.7v206.9
			C961.9,249.9,959.3,252.5,956.2,252.5z"/>
		<g>
			<g>
				<line class="st1" x1="940.6" y1="54.1" x2="940.6" y2="60.1"/>
				<polyline class="st1" points="940.6,226.6 940.6,232.6 934.6,232.6 				"/>
				<path class="st2" d="M59.8,232.6"/>
				<path class="st2" d="M922.6,232.6"/>
				<polyline class="st1" points="53.7,232.6 47.7,232.6 47.7,226.6 				"/>
				<line class="st3" x1="47.7" y1="213.8" x2="47.7" y2="66.5"/>
				<line class="st1" x1="47.7" y1="60.1" x2="47.7" y2="54.1"/>
			</g>
		</g>
	</g>
	<g>
		<g>
			<rect x="47.7" y="54.1" class="st4" width="11.3" height="11.3"/>
			<rect x="47.7" y="221.3" class="st4" width="11.3" height="11.3"/>
			<rect x="47.7" y="204.6" class="st4" width="11.3" height="11.3"/>
			<rect x="47.7" y="187.8" class="st4" width="11.3" height="11.3"/>
			<rect x="47.7" y="171.1" class="st4" width="11.3" height="11.3"/>
			<rect x="47.7" y="154.4" class="st4" width="11.3" height="11.3"/>
			<rect x="47.7" y="137.7" class="st4" width="11.3" height="11.3"/>
			<rect x="47.7" y="121" class="st4" width="11.3" height="11.3"/>
			<rect x="47.7" y="104.2" class="st4" width="11.3" height="11.3"/>
			<rect x="47.7" y="87.5" class="st4" width="11.3" height="11.3"/>
			<rect x="47.7" y="70.8" class="st4" width="11.3" height="11.3"/>
		</g>
		<g>
			<rect x="912.3" y="54.1" class="st4" width="11.3" height="11.3"/>
			<rect x="912.3" y="221.3" class="st4" width="11.3" height="11.3"/>
			<rect x="912.3" y="204.6" class="st4" width="11.3" height="11.3"/>
			<rect x="912.3" y="187.8" class="st4" width="11.3" height="11.3"/>
			<rect x="912.3" y="171.1" class="st4" width="11.3" height="11.3"/>
			<rect x="912.3" y="154.4" class="st4" width="11.3" height="11.3"/>
			<rect x="912.3" y="137.7" class="st4" width="11.3" height="11.3"/>
			<rect x="912.3" y="121" class="st4" width="11.3" height="11.3"/>
			<rect x="912.3" y="104.2" class="st4" width="11.3" height="11.3"/>
			<rect x="912.3" y="87.5" class="st4" width="11.3" height="11.3"/>
			<rect x="912.3" y="70.8" class="st4" width="11.3" height="11.3"/>
		</g>
		<g>
			<rect x="895.4" y="54.1" class="st4" width="11.3" height="11.3"/>
			<rect x="895.4" y="221.3" class="st4" width="11.3" height="11.3"/>
			<rect x="895.4" y="204.6" class="st4" width="11.3" height="11.3"/>
			<rect x="895.4" y="187.8" class="st4" width="11.3" height="11.3"/>
			<rect x="895.4" y="171.1" class="st4" width="11.3" height="11.3"/>
			<rect x="895.4" y="154.4" class="st4" width="11.3" height="11.3"/>
			<rect x="895.4" y="137.7" class="st4" width="11.3" height="11.3"/>
			<rect x="895.4" y="121" class="st4" width="11.3" height="11.3"/>
			<rect x="895.4" y="104.2" class="st4" width="11.3" height="11.3"/>
			<rect x="895.4" y="87.5" class="st4" width="11.3" height="11.3"/>
			<rect x="895.4" y="70.8" class="st4" width="11.3" height="11.3"/>
		</g>
		<g>
			<rect x="878.4" y="54.1" class="st4" width="11.3" height="11.3"/>
			<rect x="878.4" y="221.3" class="st4" width="11.3" height="11.3"/>
			<rect x="878.4" y="204.6" class="st4" width="11.3" height="11.3"/>
			<rect x="878.4" y="187.8" class="st4" width="11.3" height="11.3"/>
			<rect x="878.4" y="171.1" class="st4" width="11.3" height="11.3"/>
			<rect x="878.4" y="154.4" class="st4" width="11.3" height="11.3"/>
			<rect x="878.4" y="137.7" class="st4" width="11.3" height="11.3"/>
			<rect x="878.4" y="121" class="st4" width="11.3" height="11.3"/>
			<rect x="878.4" y="104.2" class="st4" width="11.3" height="11.3"/>
			<rect x="878.4" y="87.5" class="st4" width="11.3" height="11.3"/>
			<rect x="878.4" y="70.8" class="st4" width="11.3" height="11.3"/>
		</g>
		<g>
			<rect x="861.5" y="54.1" class="st4" width="11.3" height="11.3"/>
			<rect x="861.5" y="221.3" class="st4" width="11.3" height="11.3"/>
			<rect x="861.5" y="204.6" class="st4" width="11.3" height="11.3"/>
			<rect x="861.5" y="187.8" class="st4" width="11.3" height="11.3"/>
			<rect x="861.5" y="171.1" class="st4" width="11.3" height="11.3"/>
			<rect x="861.5" y="154.4" class="st4" width="11.3" height="11.3"/>
			<rect x="861.5" y="137.7" class="st4" width="11.3" height="11.3"/>
			<rect x="861.5" y="121" class="st4" width="11.3" height="11.3"/>
			<rect x="861.5" y="104.2" class="st4" width="11.3" height="11.3"/>
			<rect x="861.5" y="87.5" class="st4" width="11.3" height="11.3"/>
			<rect x="861.5" y="70.8" class="st4" width="11.3" height="11.3"/>
		</g>
		<g>
			<rect x="844.5" y="54.1" class="st4" width="11.3" height="11.3"/>
			<rect x="844.5" y="221.3" class="st4" width="11.3" height="11.3"/>
			<rect x="844.5" y="204.6" class="st4" width="11.3" height="11.3"/>
			<rect x="844.5" y="187.8" class="st4" width="11.3" height="11.3"/>
			<rect x="844.5" y="171.1" class="st4" width="11.3" height="11.3"/>
			<rect x="844.5" y="154.4" class="st4" width="11.3" height="11.3"/>
			<rect x="844.5" y="137.7" class="st4" width="11.3" height="11.3"/>
			<rect x="844.5" y="121" class="st4" width="11.3" height="11.3"/>
			<rect x="844.5" y="104.2" class="st4" width="11.3" height="11.3"/>
			<rect x="844.5" y="87.5" class="st4" width="11.3" height="11.3"/>
			<rect x="844.5" y="70.8" class="st4" width="11.3" height="11.3"/>
		</g>
		<g>
			<rect x="827.6" y="54.1" class="st4" width="11.3" height="11.3"/>
			<rect x="827.6" y="221.3" class="st4" width="11.3" height="11.3"/>
			<rect x="827.6" y="204.6" class="st4" width="11.3" height="11.3"/>
			<rect x="827.6" y="187.8" class="st4" width="11.3" height="11.3"/>
			<rect x="827.6" y="171.1" class="st4" width="11.3" height="11.3"/>
			<rect x="827.6" y="154.4" class="st4" width="11.3" height="11.3"/>
			<rect x="827.6" y="137.7" class="st4" width="11.3" height="11.3"/>
			<rect x="827.6" y="121" class="st4" width="11.3" height="11.3"/>
			<rect x="827.6" y="104.2" class="st4" width="11.3" height="11.3"/>
			<rect x="827.6" y="87.5" class="st4" width="11.3" height="11.3"/>
			<rect x="827.6" y="70.8" class="st4" width="11.3" height="11.3"/>
		</g>
		<g>
			<rect x="810.6" y="54.1" class="st4" width="11.3" height="11.3"/>
			<rect x="810.6" y="221.3" class="st4" width="11.3" height="11.3"/>
			<rect x="810.6" y="204.6" class="st4" width="11.3" height="11.3"/>
			<rect x="810.6" y="187.8" class="st4" width="11.3" height="11.3"/>
			<rect x="810.6" y="171.1" class="st4" width="11.3" height="11.3"/>
			<rect x="810.6" y="154.4" class="st4" width="11.3" height="11.3"/>
			<rect x="810.6" y="137.7" class="st4" width="11.3" height="11.3"/>
			<rect x="810.6" y="121" class="st4" width="11.3" height="11.3"/>
			<rect x="810.6" y="104.2" class="st4" width="11.3" height="11.3"/>
			<rect x="810.6" y="87.5" class="st4" width="11.3" height="11.3"/>
			<rect x="810.6" y="70.8" class="st4" width="11.3" height="11.3"/>
		</g>
		<g>
			<rect x="793.7" y="54.1" class="st4" width="11.3" height="11.3"/>
			<rect x="793.7" y="221.3" class="st4" width="11.3" height="11.3"/>
			<rect x="793.7" y="204.6" class="st4" width="11.3" height="11.3"/>
			<rect x="793.7" y="187.8" class="st4" width="11.3" height="11.3"/>
			<rect x="793.7" y="171.1" class="st4" width="11.3" height="11.3"/>
			<rect x="793.7" y="154.4" class="st4" width="11.3" height="11.3"/>
			<rect x="793.7" y="137.7" class="st4" width="11.3" height="11.3"/>
			<rect x="793.7" y="121" class="st4" width="11.3" height="11.3"/>
			<rect x="793.7" y="104.2" class="st4" width="11.3" height="11.3"/>
			<rect x="793.7" y="87.5" class="st4" width="11.3" height="11.3"/>
			<rect x="793.7" y="70.8" class="st4" width="11.3" height="11.3"/>
		</g>
		<g>
			<rect x="776.7" y="54.1" class="st4" width="11.3" height="11.3"/>
			<rect x="776.7" y="221.3" class="st4" width="11.3" height="11.3"/>
			<rect x="776.7" y="204.6" class="st4" width="11.3" height="11.3"/>
			<rect x="776.7" y="187.8" class="st4" width="11.3" height="11.3"/>
			<rect x="776.7" y="171.1" class="st4" width="11.3" height="11.3"/>
			<rect x="776.7" y="154.4" class="st4" width="11.3" height="11.3"/>
			<rect x="776.7" y="137.7" class="st4" width="11.3" height="11.3"/>
			<rect x="776.7" y="121" class="st4" width="11.3" height="11.3"/>
			<rect x="776.7" y="104.2" class="st4" width="11.3" height="11.3"/>
			<rect x="776.7" y="87.5" class="st4" width="11.3" height="11.3"/>
			<rect x="776.7" y="70.8" class="st4" width="11.3" height="11.3"/>
		</g>
		<g>
			<rect x="759.8" y="54.1" class="st4" width="11.3" height="11.3"/>
			<rect x="759.8" y="221.3" class="st4" width="11.3" height="11.3"/>
			<rect x="759.8" y="204.6" class="st4" width="11.3" height="11.3"/>
			<rect x="759.8" y="187.8" class="st4" width="11.3" height="11.3"/>
			<rect x="759.8" y="171.1" class="st4" width="11.3" height="11.3"/>
			<rect x="759.8" y="154.4" class="st4" width="11.3" height="11.3"/>
			<rect x="759.8" y="137.7" class="st4" width="11.3" height="11.3"/>
			<rect x="759.8" y="121" class="st4" width="11.3" height="11.3"/>
			<rect x="759.8" y="104.2" class="st4" width="11.3" height="11.3"/>
			<rect x="759.8" y="87.5" class="st4" width="11.3" height="11.3"/>
			<rect x="759.8" y="70.8" class="st4" width="11.3" height="11.3"/>
		</g>
		<g>
			<rect x="742.8" y="54.1" class="st4" width="11.3" height="11.3"/>
			<rect x="742.8" y="221.3" class="st4" width="11.3" height="11.3"/>
			<rect x="742.8" y="204.6" class="st4" width="11.3" height="11.3"/>
			<rect x="742.8" y="187.8" class="st4" width="11.3" height="11.3"/>
			<rect x="742.8" y="171.1" class="st4" width="11.3" height="11.3"/>
			<rect x="742.8" y="154.4" class="st4" width="11.3" height="11.3"/>
			<rect x="742.8" y="137.7" class="st4" width="11.3" height="11.3"/>
			<rect x="742.8" y="121" class="st4" width="11.3" height="11.3"/>
			<rect x="742.8" y="104.2" class="st4" width="11.3" height="11.3"/>
			<rect x="742.8" y="87.5" class="st4" width="11.3" height="11.3"/>
			<rect x="742.8" y="70.8" class="st4" width="11.3" height="11.3"/>
		</g>
		<g>
			<rect x="725.9" y="54.1" class="st4" width="11.3" height="11.3"/>
			<rect x="725.9" y="221.3" class="st4" width="11.3" height="11.3"/>
			<rect x="725.9" y="204.6" class="st4" width="11.3" height="11.3"/>
			<rect x="725.9" y="187.8" class="st4" width="11.3" height="11.3"/>
			<rect x="725.9" y="171.1" class="st4" width="11.3" height="11.3"/>
			<rect x="725.9" y="154.4" class="st4" width="11.3" height="11.3"/>
			<rect x="725.9" y="137.7" class="st4" width="11.3" height="11.3"/>
			<rect x="725.9" y="121" class="st4" width="11.3" height="11.3"/>
			<rect x="725.9" y="104.2" class="st4" width="11.3" height="11.3"/>
			<rect x="725.9" y="87.5" class="st4" width="11.3" height="11.3"/>
			<rect x="725.9" y="70.8" class="st4" width="11.3" height="11.3"/>
		</g>
		<g>
			<rect x="708.9" y="54.1" class="st4" width="11.3" height="11.3"/>
			<rect x="708.9" y="221.3" class="st4" width="11.3" height="11.3"/>
			<rect x="708.9" y="204.6" class="st4" width="11.3" height="11.3"/>
			<rect x="708.9" y="187.8" class="st4" width="11.3" height="11.3"/>
			<rect x="708.9" y="171.1" class="st4" width="11.3" height="11.3"/>
			<rect x="708.9" y="154.4" class="st4" width="11.3" height="11.3"/>
			<rect x="708.9" y="137.7" class="st4" width="11.3" height="11.3"/>
			<rect x="708.9" y="121" class="st4" width="11.3" height="11.3"/>
			<rect x="708.9" y="104.2" class="st4" width="11.3" height="11.3"/>
			<rect x="708.9" y="87.5" class="st4" width="11.3" height="11.3"/>
			<rect x="708.9" y="70.8" class="st4" width="11.3" height="11.3"/>
		</g>
		<g>
			<rect x="692" y="54.1" class="st4" width="11.3" height="11.3"/>
			<rect x="692" y="221.3" class="st4" width="11.3" height="11.3"/>
			<rect x="692" y="204.6" class="st4" width="11.3" height="11.3"/>
			<rect x="692" y="187.8" class="st4" width="11.3" height="11.3"/>
			<rect x="692" y="171.1" class="st4" width="11.3" height="11.3"/>
			<rect x="692" y="154.4" class="st4" width="11.3" height="11.3"/>
			<rect x="692" y="137.7" class="st4" width="11.3" height="11.3"/>
			<rect x="692" y="121" class="st4" width="11.3" height="11.3"/>
			<rect x="692" y="104.2" class="st4" width="11.3" height="11.3"/>
			<rect x="692" y="87.5" class="st4" width="11.3" height="11.3"/>
			<rect x="692" y="70.8" class="st4" width="11.3" height="11.3"/>
		</g>
		<g>
			<rect x="675" y="54.1" class="st4" width="11.3" height="11.3"/>
			<rect x="675" y="221.3" class="st4" width="11.3" height="11.3"/>
			<rect x="675" y="204.6" class="st4" width="11.3" height="11.3"/>
			<rect x="675" y="187.8" class="st4" width="11.3" height="11.3"/>
			<rect x="675" y="171.1" class="st4" width="11.3" height="11.3"/>
			<rect x="675" y="154.4" class="st4" width="11.3" height="11.3"/>
			<rect x="675" y="137.7" class="st4" width="11.3" height="11.3"/>
			<rect x="675" y="121" class="st4" width="11.3" height="11.3"/>
			<rect x="675" y="104.2" class="st4" width="11.3" height="11.3"/>
			<rect x="675" y="87.5" class="st4" width="11.3" height="11.3"/>
			<rect x="675" y="70.8" class="st4" width="11.3" height="11.3"/>
		</g>
		<g>
			<rect x="658" y="54.1" class="st4" width="11.3" height="11.3"/>
			<rect x="658" y="221.3" class="st4" width="11.3" height="11.3"/>
			<rect x="658" y="204.6" class="st4" width="11.3" height="11.3"/>
			<rect x="658" y="187.8" class="st4" width="11.3" height="11.3"/>
			<rect x="658" y="171.1" class="st4" width="11.3" height="11.3"/>
			<rect x="658" y="154.4" class="st4" width="11.3" height="11.3"/>
			<rect x="658" y="137.7" class="st4" width="11.3" height="11.3"/>
			<rect x="658" y="121" class="st4" width="11.3" height="11.3"/>
			<rect x="658" y="104.2" class="st4" width="11.3" height="11.3"/>
			<rect x="658" y="87.5" class="st4" width="11.3" height="11.3"/>
			<rect x="658" y="70.8" class="st4" width="11.3" height="11.3"/>
		</g>
		<g>
			<rect x="641.1" y="54.1" class="st4" width="11.3" height="11.3"/>
			<rect x="641.1" y="221.3" class="st4" width="11.3" height="11.3"/>
			<rect x="641.1" y="204.6" class="st4" width="11.3" height="11.3"/>
			<rect x="641.1" y="187.8" class="st4" width="11.3" height="11.3"/>
			<rect x="641.1" y="171.1" class="st4" width="11.3" height="11.3"/>
			<rect x="641.1" y="154.4" class="st4" width="11.3" height="11.3"/>
			<rect x="641.1" y="137.7" class="st4" width="11.3" height="11.3"/>
			<rect x="641.1" y="121" class="st4" width="11.3" height="11.3"/>
			<rect x="641.1" y="104.2" class="st4" width="11.3" height="11.3"/>
			<rect x="641.1" y="87.5" class="st4" width="11.3" height="11.3"/>
			<rect x="641.1" y="70.8" class="st4" width="11.3" height="11.3"/>
		</g>
		<g>
			<rect x="624.1" y="54.1" class="st4" width="11.3" height="11.3"/>
			<rect x="624.1" y="221.3" class="st4" width="11.3" height="11.3"/>
			<rect x="624.1" y="204.6" class="st4" width="11.3" height="11.3"/>
			<rect x="624.1" y="187.8" class="st4" width="11.3" height="11.3"/>
			<rect x="624.1" y="171.1" class="st4" width="11.3" height="11.3"/>
			<rect x="624.1" y="154.4" class="st4" width="11.3" height="11.3"/>
			<rect x="624.1" y="137.7" class="st4" width="11.3" height="11.3"/>
			<rect x="624.1" y="121" class="st4" width="11.3" height="11.3"/>
			<rect x="624.1" y="104.2" class="st4" width="11.3" height="11.3"/>
			<rect x="624.1" y="87.5" class="st4" width="11.3" height="11.3"/>
			<rect x="624.1" y="70.8" class="st4" width="11.3" height="11.3"/>
		</g>
		<g>
			<rect x="607.2" y="54.1" class="st4" width="11.3" height="11.3"/>
			<rect x="607.2" y="221.3" class="st4" width="11.3" height="11.3"/>
			<rect x="607.2" y="204.6" class="st4" width="11.3" height="11.3"/>
			<rect x="607.2" y="187.8" class="st4" width="11.3" height="11.3"/>
			<rect x="607.2" y="171.1" class="st4" width="11.3" height="11.3"/>
			<rect x="607.2" y="154.4" class="st4" width="11.3" height="11.3"/>
			<rect x="607.2" y="137.7" class="st4" width="11.3" height="11.3"/>
			<rect x="607.2" y="121" class="st4" width="11.3" height="11.3"/>
			<rect x="607.2" y="104.2" class="st4" width="11.3" height="11.3"/>
			<rect x="607.2" y="87.5" class="st4" width="11.3" height="11.3"/>
			<rect x="607.2" y="70.8" class="st4" width="11.3" height="11.3"/>
		</g>
		<g>
			<rect x="590.2" y="54.1" class="st4" width="11.3" height="11.3"/>
			<rect x="590.2" y="221.3" class="st4" width="11.3" height="11.3"/>
			<rect x="590.2" y="204.6" class="st4" width="11.3" height="11.3"/>
			<rect x="590.2" y="187.8" class="st4" width="11.3" height="11.3"/>
			<rect x="590.2" y="171.1" class="st4" width="11.3" height="11.3"/>
			<rect x="590.2" y="154.4" class="st4" width="11.3" height="11.3"/>
			<rect x="590.2" y="137.7" class="st4" width="11.3" height="11.3"/>
			<rect x="590.2" y="121" class="st4" width="11.3" height="11.3"/>
			<rect x="590.2" y="104.2" class="st4" width="11.3" height="11.3"/>
			<rect x="590.2" y="87.5" class="st4" width="11.3" height="11.3"/>
			<rect x="590.2" y="70.8" class="st4" width="11.3" height="11.3"/>
		</g>
		<g>
			<rect x="573.3" y="54.1" class="st4" width="11.3" height="11.3"/>
			<rect x="573.3" y="221.3" class="st4" width="11.3" height="11.3"/>
			<rect x="573.3" y="204.6" class="st4" width="11.3" height="11.3"/>
			<rect x="573.3" y="187.8" class="st4" width="11.3" height="11.3"/>
			<rect x="573.3" y="171.1" class="st4" width="11.3" height="11.3"/>
			<rect x="573.3" y="154.4" class="st4" width="11.3" height="11.3"/>
			<rect x="573.3" y="137.7" class="st4" width="11.3" height="11.3"/>
			<rect x="573.3" y="121" class="st4" width="11.3" height="11.3"/>
			<rect x="573.3" y="104.2" class="st4" width="11.3" height="11.3"/>
			<rect x="573.3" y="87.5" class="st4" width="11.3" height="11.3"/>
			<rect x="573.3" y="70.8" class="st4" width="11.3" height="11.3"/>
		</g>
		<g>
			<rect x="556.3" y="54.1" class="st4" width="11.3" height="11.3"/>
			<rect x="556.3" y="221.3" class="st4" width="11.3" height="11.3"/>
			<rect x="556.3" y="204.6" class="st4" width="11.3" height="11.3"/>
			<rect x="556.3" y="187.8" class="st4" width="11.3" height="11.3"/>
			<rect x="556.3" y="171.1" class="st4" width="11.3" height="11.3"/>
			<rect x="556.3" y="154.4" class="st4" width="11.3" height="11.3"/>
			<rect x="556.3" y="137.7" class="st4" width="11.3" height="11.3"/>
			<rect x="556.3" y="121" class="st4" width="11.3" height="11.3"/>
			<rect x="556.3" y="104.2" class="st4" width="11.3" height="11.3"/>
			<rect x="556.3" y="87.5" class="st4" width="11.3" height="11.3"/>
			<rect x="556.3" y="70.8" class="st4" width="11.3" height="11.3"/>
		</g>
		<g>
			<rect x="539.4" y="54.1" class="st4" width="11.3" height="11.3"/>
			<rect x="539.4" y="221.3" class="st4" width="11.3" height="11.3"/>
			<rect x="539.4" y="204.6" class="st4" width="11.3" height="11.3"/>
			<rect x="539.4" y="187.8" class="st4" width="11.3" height="11.3"/>
			<rect x="539.4" y="171.1" class="st4" width="11.3" height="11.3"/>
			<rect x="539.4" y="154.4" class="st4" width="11.3" height="11.3"/>
			<rect x="539.4" y="137.7" class="st4" width="11.3" height="11.3"/>
			<rect x="539.4" y="121" class="st4" width="11.3" height="11.3"/>
			<rect x="539.4" y="104.2" class="st4" width="11.3" height="11.3"/>
			<rect x="539.4" y="87.5" class="st4" width="11.3" height="11.3"/>
			<rect x="539.4" y="70.8" class="st4" width="11.3" height="11.3"/>
		</g>
		<g>
			<rect x="522.4" y="54.1" class="st4" width="11.3" height="11.3"/>
			<rect x="522.4" y="221.3" class="st4" width="11.3" height="11.3"/>
			<rect x="522.4" y="204.6" class="st4" width="11.3" height="11.3"/>
			<rect x="522.4" y="187.8" class="st4" width="11.3" height="11.3"/>
			<rect x="522.4" y="171.1" class="st4" width="11.3" height="11.3"/>
			<rect x="522.4" y="154.4" class="st4" width="11.3" height="11.3"/>
			<rect x="522.4" y="137.7" class="st4" width="11.3" height="11.3"/>
			<rect x="522.4" y="121" class="st4" width="11.3" height="11.3"/>
			<rect x="522.4" y="104.2" class="st4" width="11.3" height="11.3"/>
			<rect x="522.4" y="87.5" class="st4" width="11.3" height="11.3"/>
			<rect x="522.4" y="70.8" class="st4" width="11.3" height="11.3"/>
		</g>
		<g>
			<rect x="505.5" y="54.1" class="st4" width="11.3" height="11.3"/>
			<rect x="505.5" y="221.3" class="st4" width="11.3" height="11.3"/>
			<rect x="505.5" y="204.6" class="st4" width="11.3" height="11.3"/>
			<rect x="505.5" y="187.8" class="st4" width="11.3" height="11.3"/>
			<rect x="505.5" y="171.1" class="st4" width="11.3" height="11.3"/>
			<rect x="505.5" y="154.4" class="st4" width="11.3" height="11.3"/>
			<rect x="505.5" y="137.7" class="st4" width="11.3" height="11.3"/>
			<rect x="505.5" y="121" class="st4" width="11.3" height="11.3"/>
			<rect x="505.5" y="104.2" class="st4" width="11.3" height="11.3"/>
			<rect x="505.5" y="87.5" class="st4" width="11.3" height="11.3"/>
			<rect x="505.5" y="70.8" class="st4" width="11.3" height="11.3"/>
		</g>
		<g>
			<rect x="488.5" y="54.1" class="st4" width="11.3" height="11.3"/>
			<rect x="488.5" y="221.3" class="st4" width="11.3" height="11.3"/>
			<rect x="488.5" y="204.6" class="st4" width="11.3" height="11.3"/>
			<rect x="488.5" y="187.8" class="st4" width="11.3" height="11.3"/>
			<rect x="488.5" y="171.1" class="st4" width="11.3" height="11.3"/>
			<rect x="488.5" y="154.4" class="st4" width="11.3" height="11.3"/>
			<rect x="488.5" y="137.7" class="st4" width="11.3" height="11.3"/>
			<rect x="488.5" y="121" class="st4" width="11.3" height="11.3"/>
			<rect x="488.5" y="104.2" class="st4" width="11.3" height="11.3"/>
			<rect x="488.5" y="87.5" class="st4" width="11.3" height="11.3"/>
			<rect x="488.5" y="70.8" class="st4" width="11.3" height="11.3"/>
		</g>
		<g>
			<rect x="471.6" y="54.1" class="st4" width="11.3" height="11.3"/>
			<rect x="471.6" y="221.3" class="st4" width="11.3" height="11.3"/>
			<rect x="471.6" y="204.6" class="st4" width="11.3" height="11.3"/>
			<rect x="471.6" y="187.8" class="st4" width="11.3" height="11.3"/>
			<rect x="471.6" y="171.1" class="st4" width="11.3" height="11.3"/>
			<rect x="471.6" y="154.4" class="st4" width="11.3" height="11.3"/>
			<rect x="471.6" y="137.7" class="st4" width="11.3" height="11.3"/>
			<rect x="471.6" y="121" class="st4" width="11.3" height="11.3"/>
			<rect x="471.6" y="104.2" class="st4" width="11.3" height="11.3"/>
			<rect x="471.6" y="87.5" class="st4" width="11.3" height="11.3"/>
			<rect x="471.6" y="70.8" class="st4" width="11.3" height="11.3"/>
		</g>
		<g>
			<rect x="454.6" y="54.1" class="st4" width="11.3" height="11.3"/>
			<rect x="454.6" y="221.3" class="st4" width="11.3" height="11.3"/>
			<rect x="454.6" y="204.6" class="st4" width="11.3" height="11.3"/>
			<rect x="454.6" y="187.8" class="st4" width="11.3" height="11.3"/>
			<rect x="454.6" y="171.1" class="st4" width="11.3" height="11.3"/>
			<rect x="454.6" y="154.4" class="st4" width="11.3" height="11.3"/>
			<rect x="454.6" y="137.7" class="st4" width="11.3" height="11.3"/>
			<rect x="454.6" y="121" class="st4" width="11.3" height="11.3"/>
			<rect x="454.6" y="104.2" class="st4" width="11.3" height="11.3"/>
			<rect x="454.6" y="87.5" class="st4" width="11.3" height="11.3"/>
			<rect x="454.6" y="70.8" class="st4" width="11.3" height="11.3"/>
		</g>
		<g>
			<rect x="437.6" y="54.1" class="st4" width="11.3" height="11.3"/>
			<rect x="437.6" y="221.3" class="st4" width="11.3" height="11.3"/>
			<rect x="437.6" y="204.6" class="st4" width="11.3" height="11.3"/>
			<rect x="437.6" y="187.8" class="st4" width="11.3" height="11.3"/>
			<rect x="437.6" y="171.1" class="st4" width="11.3" height="11.3"/>
			<rect x="437.6" y="154.4" class="st4" width="11.3" height="11.3"/>
			<rect x="437.6" y="137.7" class="st4" width="11.3" height="11.3"/>
			<rect x="437.6" y="121" class="st4" width="11.3" height="11.3"/>
			<rect x="437.6" y="104.2" class="st4" width="11.3" height="11.3"/>
			<rect x="437.6" y="87.5" class="st4" width="11.3" height="11.3"/>
			<rect x="437.6" y="70.8" class="st4" width="11.3" height="11.3"/>
		</g>
		<g>
			<rect x="420.7" y="54.1" class="st4" width="11.3" height="11.3"/>
			<rect x="420.7" y="221.3" class="st4" width="11.3" height="11.3"/>
			<rect x="420.7" y="204.6" class="st4" width="11.3" height="11.3"/>
			<rect x="420.7" y="187.8" class="st4" width="11.3" height="11.3"/>
			<rect x="420.7" y="171.1" class="st4" width="11.3" height="11.3"/>
			<rect x="420.7" y="154.4" class="st4" width="11.3" height="11.3"/>
			<rect x="420.7" y="137.7" class="st4" width="11.3" height="11.3"/>
			<rect x="420.7" y="121" class="st4" width="11.3" height="11.3"/>
			<rect x="420.7" y="104.2" class="st4" width="11.3" height="11.3"/>
			<rect x="420.7" y="87.5" class="st4" width="11.3" height="11.3"/>
			<rect x="420.7" y="70.8" class="st4" width="11.3" height="11.3"/>
		</g>
		<g>
			<rect x="403.7" y="54.1" class="st4" width="11.3" height="11.3"/>
			<rect x="403.7" y="221.3" class="st4" width="11.3" height="11.3"/>
			<rect x="403.7" y="204.6" class="st4" width="11.3" height="11.3"/>
			<rect x="403.7" y="187.8" class="st4" width="11.3" height="11.3"/>
			<rect x="403.7" y="171.1" class="st4" width="11.3" height="11.3"/>
			<rect x="403.7" y="154.4" class="st4" width="11.3" height="11.3"/>
			<rect x="403.7" y="137.7" class="st4" width="11.3" height="11.3"/>
			<rect x="403.7" y="121" class="st4" width="11.3" height="11.3"/>
			<rect x="403.7" y="104.2" class="st4" width="11.3" height="11.3"/>
			<rect x="403.7" y="87.5" class="st4" width="11.3" height="11.3"/>
			<rect x="403.7" y="70.8" class="st4" width="11.3" height="11.3"/>
		</g>
		<g>
			<rect x="386.8" y="54.1" class="st4" width="11.3" height="11.3"/>
			<rect x="386.8" y="221.3" class="st4" width="11.3" height="11.3"/>
			<rect x="386.8" y="204.6" class="st4" width="11.3" height="11.3"/>
			<rect x="386.8" y="187.8" class="st4" width="11.3" height="11.3"/>
			<rect x="386.8" y="171.1" class="st4" width="11.3" height="11.3"/>
			<rect x="386.8" y="154.4" class="st4" width="11.3" height="11.3"/>
			<rect x="386.8" y="137.7" class="st4" width="11.3" height="11.3"/>
			<rect x="386.8" y="121" class="st4" width="11.3" height="11.3"/>
			<rect x="386.8" y="104.2" class="st4" width="11.3" height="11.3"/>
			<rect x="386.8" y="87.5" class="st4" width="11.3" height="11.3"/>
			<rect x="386.8" y="70.8" class="st4" width="11.3" height="11.3"/>
		</g>
		<g>
			<rect x="369.8" y="54.1" class="st4" width="11.3" height="11.3"/>
			<rect x="369.8" y="221.3" class="st4" width="11.3" height="11.3"/>
			<rect x="369.8" y="204.6" class="st4" width="11.3" height="11.3"/>
			<rect x="369.8" y="187.8" class="st4" width="11.3" height="11.3"/>
			<rect x="369.8" y="171.1" class="st4" width="11.3" height="11.3"/>
			<rect x="369.8" y="154.4" class="st4" width="11.3" height="11.3"/>
			<rect x="369.8" y="137.7" class="st4" width="11.3" height="11.3"/>
			<rect x="369.8" y="121" class="st4" width="11.3" height="11.3"/>
			<rect x="369.8" y="104.2" class="st4" width="11.3" height="11.3"/>
			<rect x="369.8" y="87.5" class="st4" width="11.3" height="11.3"/>
			<rect x="369.8" y="70.8" class="st4" width="11.3" height="11.3"/>
		</g>
		<g>
			<rect x="352.9" y="54.1" class="st4" width="11.3" height="11.3"/>
			<rect x="352.9" y="221.3" class="st4" width="11.3" height="11.3"/>
			<rect x="352.9" y="204.6" class="st4" width="11.3" height="11.3"/>
			<rect x="352.9" y="187.8" class="st4" width="11.3" height="11.3"/>
			<rect x="352.9" y="171.1" class="st4" width="11.3" height="11.3"/>
			<rect x="352.9" y="154.4" class="st4" width="11.3" height="11.3"/>
			<rect x="352.9" y="137.7" class="st4" width="11.3" height="11.3"/>
			<rect x="352.9" y="121" class="st4" width="11.3" height="11.3"/>
			<rect x="352.9" y="104.2" class="st4" width="11.3" height="11.3"/>
			<rect x="352.9" y="87.5" class="st4" width="11.3" height="11.3"/>
			<rect x="352.9" y="70.8" class="st4" width="11.3" height="11.3"/>
		</g>
		<g>
			<rect x="335.9" y="54.1" class="st4" width="11.3" height="11.3"/>
			<rect x="335.9" y="221.3" class="st4" width="11.3" height="11.3"/>
			<rect x="335.9" y="204.6" class="st4" width="11.3" height="11.3"/>
			<rect x="335.9" y="187.8" class="st4" width="11.3" height="11.3"/>
			<rect x="335.9" y="171.1" class="st4" width="11.3" height="11.3"/>
			<rect x="335.9" y="154.4" class="st4" width="11.3" height="11.3"/>
			<rect x="335.9" y="137.7" class="st4" width="11.3" height="11.3"/>
			<rect x="335.9" y="121" class="st4" width="11.3" height="11.3"/>
			<rect x="335.9" y="104.2" class="st4" width="11.3" height="11.3"/>
			<rect x="335.9" y="87.5" class="st4" width="11.3" height="11.3"/>
			<rect x="335.9" y="70.8" class="st4" width="11.3" height="11.3"/>
		</g>
		<g>
			<rect x="319" y="54.1" class="st4" width="11.3" height="11.3"/>
			<rect x="319" y="221.3" class="st4" width="11.3" height="11.3"/>
			<rect x="319" y="204.6" class="st4" width="11.3" height="11.3"/>
			<rect x="319" y="187.8" class="st4" width="11.3" height="11.3"/>
			<rect x="319" y="171.1" class="st4" width="11.3" height="11.3"/>
			<rect x="319" y="154.4" class="st4" width="11.3" height="11.3"/>
			<rect x="319" y="137.7" class="st4" width="11.3" height="11.3"/>
			<rect x="319" y="121" class="st4" width="11.3" height="11.3"/>
			<rect x="319" y="104.2" class="st4" width="11.3" height="11.3"/>
			<rect x="319" y="87.5" class="st4" width="11.3" height="11.3"/>
			<rect x="319" y="70.8" class="st4" width="11.3" height="11.3"/>
		</g>
		<g>
			<rect x="302" y="54.1" class="st4" width="11.3" height="11.3"/>
			<rect x="302" y="221.3" class="st4" width="11.3" height="11.3"/>
			<rect x="302" y="204.6" class="st4" width="11.3" height="11.3"/>
			<rect x="302" y="187.8" class="st4" width="11.3" height="11.3"/>
			<rect x="302" y="171.1" class="st4" width="11.3" height="11.3"/>
			<rect x="302" y="154.4" class="st4" width="11.3" height="11.3"/>
			<rect x="302" y="137.7" class="st4" width="11.3" height="11.3"/>
			<rect x="302" y="121" class="st4" width="11.3" height="11.3"/>
			<rect x="302" y="104.2" class="st4" width="11.3" height="11.3"/>
			<rect x="302" y="87.5" class="st4" width="11.3" height="11.3"/>
			<rect x="302" y="70.8" class="st4" width="11.3" height="11.3"/>
		</g>
		<g>
			<rect x="285.1" y="54.1" class="st4" width="11.3" height="11.3"/>
			<rect x="285.1" y="221.3" class="st4" width="11.3" height="11.3"/>
			<rect x="285.1" y="204.6" class="st4" width="11.3" height="11.3"/>
			<rect x="285.1" y="187.8" class="st4" width="11.3" height="11.3"/>
			<rect x="285.1" y="171.1" class="st4" width="11.3" height="11.3"/>
			<rect x="285.1" y="154.4" class="st4" width="11.3" height="11.3"/>
			<rect x="285.1" y="137.7" class="st4" width="11.3" height="11.3"/>
			<rect x="285.1" y="121" class="st4" width="11.3" height="11.3"/>
			<rect x="285.1" y="104.2" class="st4" width="11.3" height="11.3"/>
			<rect x="285.1" y="87.5" class="st4" width="11.3" height="11.3"/>
			<rect x="285.1" y="70.8" class="st4" width="11.3" height="11.3"/>
		</g>
		<g>
			<rect x="268.1" y="54.1" class="st4" width="11.3" height="11.3"/>
			<rect x="268.1" y="221.3" class="st4" width="11.3" height="11.3"/>
			<rect x="268.1" y="204.6" class="st4" width="11.3" height="11.3"/>
			<rect x="268.1" y="187.8" class="st4" width="11.3" height="11.3"/>
			<rect x="268.1" y="171.1" class="st4" width="11.3" height="11.3"/>
			<rect x="268.1" y="154.4" class="st4" width="11.3" height="11.3"/>
			<rect x="268.1" y="137.7" class="st4" width="11.3" height="11.3"/>
			<rect x="268.1" y="121" class="st4" width="11.3" height="11.3"/>
			<rect x="268.1" y="104.2" class="st4" width="11.3" height="11.3"/>
			<rect x="268.1" y="87.5" class="st4" width="11.3" height="11.3"/>
			<rect x="268.1" y="70.8" class="st4" width="11.3" height="11.3"/>
		</g>
		<g>
			<rect x="251.2" y="54.1" class="st4" width="11.3" height="11.3"/>
			<rect x="251.2" y="221.3" class="st4" width="11.3" height="11.3"/>
			<rect x="251.2" y="204.6" class="st4" width="11.3" height="11.3"/>
			<rect x="251.2" y="187.8" class="st4" width="11.3" height="11.3"/>
			<rect x="251.2" y="171.1" class="st4" width="11.3" height="11.3"/>
			<rect x="251.2" y="154.4" class="st4" width="11.3" height="11.3"/>
			<rect x="251.2" y="137.7" class="st4" width="11.3" height="11.3"/>
			<rect x="251.2" y="121" class="st4" width="11.3" height="11.3"/>
			<rect x="251.2" y="104.2" class="st4" width="11.3" height="11.3"/>
			<rect x="251.2" y="87.5" class="st4" width="11.3" height="11.3"/>
			<rect x="251.2" y="70.8" class="st4" width="11.3" height="11.3"/>
		</g>
		<g>
			<rect x="234.2" y="54.1" class="st4" width="11.3" height="11.3"/>
			<rect x="234.2" y="221.3" class="st4" width="11.3" height="11.3"/>
			<rect x="234.2" y="204.6" class="st4" width="11.3" height="11.3"/>
			<rect x="234.2" y="187.8" class="st4" width="11.3" height="11.3"/>
			<rect x="234.2" y="171.1" class="st4" width="11.3" height="11.3"/>
			<rect x="234.2" y="154.4" class="st4" width="11.3" height="11.3"/>
			<rect x="234.2" y="137.7" class="st4" width="11.3" height="11.3"/>
			<rect x="234.2" y="121" class="st4" width="11.3" height="11.3"/>
			<rect x="234.2" y="104.2" class="st4" width="11.3" height="11.3"/>
			<rect x="234.2" y="87.5" class="st4" width="11.3" height="11.3"/>
			<rect x="234.2" y="70.8" class="st4" width="11.3" height="11.3"/>
		</g>
		<g>
			<rect x="217.3" y="54.1" class="st4" width="11.3" height="11.3"/>
			<rect x="217.3" y="221.3" class="st4" width="11.3" height="11.3"/>
			<rect x="217.3" y="204.6" class="st4" width="11.3" height="11.3"/>
			<rect x="217.3" y="187.8" class="st4" width="11.3" height="11.3"/>
			<rect x="217.3" y="171.1" class="st4" width="11.3" height="11.3"/>
			<rect x="217.3" y="154.4" class="st4" width="11.3" height="11.3"/>
			<rect x="217.3" y="137.7" class="st4" width="11.3" height="11.3"/>
			<rect x="217.3" y="121" class="st4" width="11.3" height="11.3"/>
			<rect x="217.3" y="104.2" class="st4" width="11.3" height="11.3"/>
			<rect x="217.3" y="87.5" class="st4" width="11.3" height="11.3"/>
			<rect x="217.3" y="70.8" class="st4" width="11.3" height="11.3"/>
		</g>
		<g>
			<rect x="200.3" y="54.1" class="st4" width="11.3" height="11.3"/>
			<rect x="200.3" y="221.3" class="st4" width="11.3" height="11.3"/>
			<rect x="200.3" y="204.6" class="st4" width="11.3" height="11.3"/>
			<rect x="200.3" y="187.8" class="st4" width="11.3" height="11.3"/>
			<rect x="200.3" y="171.1" class="st4" width="11.3" height="11.3"/>
			<rect x="200.3" y="154.4" class="st4" width="11.3" height="11.3"/>
			<rect x="200.3" y="137.7" class="st4" width="11.3" height="11.3"/>
			<rect x="200.3" y="121" class="st4" width="11.3" height="11.3"/>
			<rect x="200.3" y="104.2" class="st4" width="11.3" height="11.3"/>
			<rect x="200.3" y="87.5" class="st4" width="11.3" height="11.3"/>
			<rect x="200.3" y="70.8" class="st4" width="11.3" height="11.3"/>
		</g>
		<g>
			<rect x="183.3" y="54.1" class="st4" width="11.3" height="11.3"/>
			<rect x="183.3" y="221.3" class="st4" width="11.3" height="11.3"/>
			<rect x="183.3" y="204.6" class="st4" width="11.3" height="11.3"/>
			<rect x="183.3" y="187.8" class="st4" width="11.3" height="11.3"/>
			<rect x="183.3" y="171.1" class="st4" width="11.3" height="11.3"/>
			<rect x="183.3" y="154.4" class="st4" width="11.3" height="11.3"/>
			<rect x="183.3" y="137.7" class="st4" width="11.3" height="11.3"/>
			<rect x="183.3" y="121" class="st4" width="11.3" height="11.3"/>
			<rect x="183.3" y="104.2" class="st4" width="11.3" height="11.3"/>
			<rect x="183.3" y="87.5" class="st4" width="11.3" height="11.3"/>
			<rect x="183.3" y="70.8" class="st4" width="11.3" height="11.3"/>
		</g>
		<g>
			<rect x="166.4" y="54.1" class="st4" width="11.3" height="11.3"/>
			<rect x="166.4" y="221.3" class="st4" width="11.3" height="11.3"/>
			<rect x="166.4" y="204.6" class="st4" width="11.3" height="11.3"/>
			<rect x="166.4" y="187.8" class="st4" width="11.3" height="11.3"/>
			<rect x="166.4" y="171.1" class="st4" width="11.3" height="11.3"/>
			<rect x="166.4" y="154.4" class="st4" width="11.3" height="11.3"/>
			<rect x="166.4" y="137.7" class="st4" width="11.3" height="11.3"/>
			<rect x="166.4" y="121" class="st4" width="11.3" height="11.3"/>
			<rect x="166.4" y="104.2" class="st4" width="11.3" height="11.3"/>
			<rect x="166.4" y="87.5" class="st4" width="11.3" height="11.3"/>
			<rect x="166.4" y="70.8" class="st4" width="11.3" height="11.3"/>
		</g>
		<g>
			<rect x="149.4" y="54.1" class="st4" width="11.3" height="11.3"/>
			<rect x="149.4" y="221.3" class="st4" width="11.3" height="11.3"/>
			<rect x="149.4" y="204.6" class="st4" width="11.3" height="11.3"/>
			<rect x="149.4" y="187.8" class="st4" width="11.3" height="11.3"/>
			<rect x="149.4" y="171.1" class="st4" width="11.3" height="11.3"/>
			<rect x="149.4" y="154.4" class="st4" width="11.3" height="11.3"/>
			<rect x="149.4" y="137.7" class="st4" width="11.3" height="11.3"/>
			<rect x="149.4" y="121" class="st4" width="11.3" height="11.3"/>
			<rect x="149.4" y="104.2" class="st4" width="11.3" height="11.3"/>
			<rect x="149.4" y="87.5" class="st4" width="11.3" height="11.3"/>
			<rect x="149.4" y="70.8" class="st4" width="11.3" height="11.3"/>
		</g>
		<g>
			<rect x="132.5" y="54.1" class="st4" width="11.3" height="11.3"/>
			<rect x="132.5" y="221.3" class="st4" width="11.3" height="11.3"/>
			<rect x="132.5" y="204.6" class="st4" width="11.3" height="11.3"/>
			<rect x="132.5" y="187.8" class="st4" width="11.3" height="11.3"/>
			<rect x="132.5" y="171.1" class="st4" width="11.3" height="11.3"/>
			<rect x="132.5" y="154.4" class="st4" width="11.3" height="11.3"/>
			<rect x="132.5" y="137.7" class="st4" width="11.3" height="11.3"/>
			<rect x="132.5" y="121" class="st4" width="11.3" height="11.3"/>
			<rect x="132.5" y="104.2" class="st4" width="11.3" height="11.3"/>
			<rect x="132.5" y="87.5" class="st4" width="11.3" height="11.3"/>
			<rect x="132.5" y="70.8" class="st4" width="11.3" height="11.3"/>
		</g>
		<g>
			<rect x="115.5" y="54.1" class="st4" width="11.3" height="11.3"/>
			<rect x="115.5" y="221.3" class="st4" width="11.3" height="11.3"/>
			<rect x="115.5" y="204.6" class="st4" width="11.3" height="11.3"/>
			<rect x="115.5" y="187.8" class="st4" width="11.3" height="11.3"/>
			<rect x="115.5" y="171.1" class="st4" width="11.3" height="11.3"/>
			<rect x="115.5" y="154.4" class="st4" width="11.3" height="11.3"/>
			<rect x="115.5" y="137.7" class="st4" width="11.3" height="11.3"/>
			<rect x="115.5" y="121" class="st4" width="11.3" height="11.3"/>
			<rect x="115.5" y="104.2" class="st4" width="11.3" height="11.3"/>
			<rect x="115.5" y="87.5" class="st4" width="11.3" height="11.3"/>
			<rect x="115.5" y="70.8" class="st4" width="11.3" height="11.3"/>
		</g>
		<g>
			<rect x="98.6" y="54.1" class="st4" width="11.3" height="11.3"/>
			<rect x="98.6" y="221.3" class="st4" width="11.3" height="11.3"/>
			<rect x="98.6" y="204.6" class="st4" width="11.3" height="11.3"/>
			<rect x="98.6" y="187.8" class="st4" width="11.3" height="11.3"/>
			<rect x="98.6" y="171.1" class="st4" width="11.3" height="11.3"/>
			<rect x="98.6" y="154.4" class="st4" width="11.3" height="11.3"/>
			<rect x="98.6" y="137.7" class="st4" width="11.3" height="11.3"/>
			<rect x="98.6" y="121" class="st4" width="11.3" height="11.3"/>
			<rect x="98.6" y="104.2" class="st4" width="11.3" height="11.3"/>
			<rect x="98.6" y="87.5" class="st4" width="11.3" height="11.3"/>
			<rect x="98.6" y="70.8" class="st4" width="11.3" height="11.3"/>
		</g>
		<g>
			<rect x="81.6" y="54.1" class="st4" width="11.3" height="11.3"/>
			<rect x="81.6" y="221.3" class="st4" width="11.3" height="11.3"/>
			<rect x="81.6" y="204.6" class="st4" width="11.3" height="11.3"/>
			<rect x="81.6" y="187.8" class="st4" width="11.3" height="11.3"/>
			<rect x="81.6" y="171.1" class="st4" width="11.3" height="11.3"/>
			<rect x="81.6" y="154.4" class="st4" width="11.3" height="11.3"/>
			<rect x="81.6" y="137.7" class="st4" width="11.3" height="11.3"/>
			<rect x="81.6" y="121" class="st4" width="11.3" height="11.3"/>
			<rect x="81.6" y="104.2" class="st4" width="11.3" height="11.3"/>
			<rect x="81.6" y="87.5" class="st4" width="11.3" height="11.3"/>
			<rect x="81.6" y="70.8" class="st4" width="11.3" height="11.3"/>
		</g>
		<g>
			<rect x="64.7" y="54.1" class="st4" width="11.3" height="11.3"/>
			<rect x="64.7" y="221.3" class="st4" width="11.3" height="11.3"/>
			<rect x="64.7" y="204.6" class="st4" width="11.3" height="11.3"/>
			<rect x="64.7" y="187.8" class="st4" width="11.3" height="11.3"/>
			<rect x="64.7" y="171.1" class="st4" width="11.3" height="11.3"/>
			<rect x="64.7" y="154.4" class="st4" width="11.3" height="11.3"/>
			<rect x="64.7" y="137.7" class="st4" width="11.3" height="11.3"/>
			<rect x="64.7" y="121" class="st4" width="11.3" height="11.3"/>
			<rect x="64.7" y="104.2" class="st4" width="11.3" height="11.3"/>
			<rect x="64.7" y="87.5" class="st4" width="11.3" height="11.3"/>
			<rect x="64.7" y="70.8" class="st4" width="11.3" height="11.3"/>
		</g>
		<g>
			<rect x="929.3" y="54.1" class="st4" width="11.3" height="11.3"/>
			<rect x="929.3" y="221.3" class="st4" width="11.3" height="11.3"/>
			<rect x="929.3" y="204.6" class="st4" width="11.3" height="11.3"/>
			<rect x="929.3" y="187.8" class="st4" width="11.3" height="11.3"/>
			<rect x="929.3" y="171.1" class="st4" width="11.3" height="11.3"/>
			<rect x="929.3" y="154.4" class="st4" width="11.3" height="11.3"/>
			<rect x="929.3" y="137.7" class="st4" width="11.3" height="11.3"/>
			<rect x="929.3" y="121" class="st4" width="11.3" height="11.3"/>
			<rect x="929.3" y="104.2" class="st4" width="11.3" height="11.3"/>
			<rect x="929.3" y="87.5" class="st4" width="11.3" height="11.3"/>
			<rect x="929.3" y="70.8" class="st4" width="11.3" height="11.3"/>
		</g>
	</g>
</g>
</svg>
